<svg width="193" height="38" viewBox="0 0 193 38" fill="none" xmlns="http://www.w3.org/2000/svg">
<path d="M23.6398 33.0334V37H4.16056V33.0334H23.6398ZM5.14589 0.214316V37H0.269767V0.214316H5.14589ZM21.0628 16.0301V19.9967H4.16056V16.0301H21.0628ZM23.3871 0.214316V4.20617H4.16056V0.214316H23.3871ZM39.6325 37H31.9519L32.0025 33.0334H39.6325C42.26 33.0334 44.4496 32.486 46.2013 31.3912C47.953 30.2795 49.2668 28.73 50.1427 26.7425C51.0354 24.7381 51.4817 22.3969 51.4817 19.7188V17.4702C51.4817 15.3648 51.2291 13.4952 50.7238 11.8614C50.2185 10.2108 49.4774 8.82122 48.5004 7.69272C47.5235 6.54738 46.3277 5.67995 44.9128 5.09044C43.5148 4.50093 41.9063 4.20617 40.0872 4.20617H31.8004V0.214316H40.0872C42.4958 0.214316 44.6939 0.618554 46.6814 1.42703C48.6689 2.21866 50.3785 3.37243 51.8101 4.88832C53.2587 6.38737 54.3703 8.20644 55.1451 10.3455C55.9199 12.4678 56.3073 14.8595 56.3073 17.5208V19.7188C56.3073 22.38 55.9199 24.7802 55.1451 26.9193C54.3703 29.0416 53.2502 30.8522 51.7849 32.3513C50.3364 33.8503 48.5847 35.0041 46.5298 35.8126C44.4918 36.6042 42.1926 37 39.6325 37ZM34.5542 0.214316V37H29.6781V0.214316H34.5542ZM84.6798 0.214316H89.5306V25.1002C89.5306 27.8625 88.9159 30.1616 87.6863 31.9976C86.4567 33.8335 84.8229 35.2146 82.7849 36.141C80.7637 37.0505 78.5657 37.5053 76.1908 37.5053C73.698 37.5053 71.441 37.0505 69.4198 36.141C67.4154 35.2146 65.8237 33.8335 64.6447 31.9976C63.4825 30.1616 62.9014 27.8625 62.9014 25.1002V0.214316H67.727V25.1002C67.727 27.0204 68.0807 28.6036 68.7882 29.85C69.4956 31.0964 70.4809 32.0228 71.7441 32.6292C73.0242 33.2355 74.5064 33.5387 76.1908 33.5387C77.8919 33.5387 79.3741 33.2355 80.6374 32.6292C81.9175 32.0228 82.9112 31.0964 83.6186 29.85C84.3261 28.6036 84.6798 27.0204 84.6798 25.1002V0.214316ZM119.495 33.0334V37H101.102V33.0334H119.495ZM102.062 0.214316V37H97.1859V0.214316H102.062ZM148.448 33.0334V37H128.969V33.0334H148.448ZM129.954 0.214316V37H125.078V0.214316H129.954ZM145.871 16.0301V19.9967H128.969V16.0301H145.871ZM148.196 0.214316V4.20617H128.969V0.214316H148.196ZM157.645 0.214316L166.487 14.3121L175.33 0.214316H181.015L169.393 18.4303L181.293 37H175.558L166.487 22.6243L157.417 37H151.682L163.582 18.4303L151.96 0.214316H157.645ZM192.157 0.214316V37H187.281V0.214316H192.157Z" fill="white"/>
</svg>
