<svg width="201" height="85" viewBox="0 0 201 85" fill="none" xmlns="http://www.w3.org/2000/svg">
<path d="M30 0L0 12.6076L30 29.4172L44.2886 21.411L30.8843 16.8183C30.6082 16.9666 30.3061 17.044 30 17.0448C29.4548 17.0448 28.932 16.8021 28.5465 16.3701C28.161 15.9381 27.9444 15.3522 27.9444 14.7412C27.9444 14.1303 28.161 13.5444 28.5465 13.1124C28.932 12.6804 29.4548 12.4377 30 12.4377L29.6601 13.6761L32.0415 14.4972L32.0426 14.5052L35.5568 15.7096L55.5659 22.6085V24.3572C55.2892 24.5682 55.0626 24.8517 54.9059 25.1832C54.7491 25.5146 54.667 25.884 54.6666 26.2591C54.667 26.6428 54.7529 27.0203 54.9165 27.3574C55.0801 27.6944 55.3163 27.9803 55.6036 28.1891C54.6679 32.152 54.6666 41.1431 54.6666 44.6872C56.7222 46.1838 56.7222 46.2385 58.7777 44.6872C58.7777 41.1435 58.7767 32.1541 57.8412 28.1904C58.1285 27.9814 58.3647 27.6953 58.5283 27.358C58.6919 27.0206 58.7776 26.6428 58.7777 26.2589C58.7777 25.8834 58.6957 25.5136 58.539 25.1817C58.3822 24.8498 58.1555 24.5658 57.8784 24.3546V20.6949L50.2569 18.067L60 12.6076L30 0ZM12.4794 22.9476L10.7934 34.2839C14.1562 34.7767 18.1788 36.9671 21.8767 39.5571C23.9798 41.0302 25.9497 42.6472 27.5495 44.216C28.5275 45.1749 29.3452 46.0949 30 47C30.6548 46.0947 31.4725 45.1749 32.4505 44.216C34.0503 42.6472 36.0201 41.0302 38.1233 39.5571C41.8212 36.9671 45.8438 34.7767 49.2066 34.2839L47.5204 22.9476H46.7174L30 32.3148L13.2823 22.9476H12.4794Z" fill="#1A74E8"/>
<path d="M27.6398 68.0334V72H8.16056V68.0334H27.6398ZM9.14589 35.2143V72H4.26977V35.2143H9.14589ZM25.0628 51.0301V54.9967H8.16056V51.0301H25.0628ZM27.3871 35.2143V39.2062H8.16056V35.2143H27.3871ZM43.6325 72H35.9519L36.0025 68.0334H43.6325C46.26 68.0334 48.4496 67.486 50.2013 66.3912C51.953 65.2795 53.2668 63.73 54.1427 61.7425C55.0354 59.7381 55.4817 57.3969 55.4817 54.7188V52.4702C55.4817 50.3648 55.2291 48.4952 54.7238 46.8614C54.2185 45.2108 53.4774 43.8212 52.5004 42.6927C51.5235 41.5474 50.3277 40.68 48.9128 40.0904C47.5148 39.5009 45.9063 39.2062 44.0872 39.2062H35.8004V35.2143H44.0872C46.4958 35.2143 48.6939 35.6186 50.6814 36.427C52.6689 37.2187 54.3785 38.3724 55.8101 39.8883C57.2587 41.3874 58.3703 43.2064 59.1451 45.3455C59.9199 47.4678 60.3073 49.8595 60.3073 52.5208V54.7188C60.3073 57.38 59.9199 59.7802 59.1451 61.9193C58.3703 64.0416 57.2502 65.8522 55.7849 67.3513C54.3364 68.8503 52.5847 70.0041 50.5298 70.8126C48.4918 71.6042 46.1926 72 43.6325 72ZM38.5542 35.2143V72H33.6781V35.2143H38.5542ZM88.6798 35.2143H93.5306V60.1002C93.5306 62.8625 92.9159 65.1616 91.6863 66.9976C90.4567 68.8335 88.8229 70.2146 86.7849 71.141C84.7637 72.0505 82.5657 72.5053 80.1908 72.5053C77.698 72.5053 75.441 72.0505 73.4198 71.141C71.4154 70.2146 69.8237 68.8335 68.6447 66.9976C67.4825 65.1616 66.9014 62.8625 66.9014 60.1002V35.2143H71.727V60.1002C71.727 62.0204 72.0807 63.6036 72.7882 64.85C73.4956 66.0964 74.4809 67.0228 75.7441 67.6292C77.0242 68.2355 78.5064 68.5387 80.1908 68.5387C81.8919 68.5387 83.3741 68.2355 84.6374 67.6292C85.9175 67.0228 86.9112 66.0964 87.6186 64.85C88.3261 63.6036 88.6798 62.0204 88.6798 60.1002V35.2143ZM123.495 68.0334V72H105.102V68.0334H123.495ZM106.062 35.2143V72H101.186V35.2143H106.062ZM152.448 68.0334V72H132.969V68.0334H152.448ZM133.954 35.2143V72H129.078V35.2143H133.954ZM149.871 51.0301V54.9967H132.969V51.0301H149.871ZM152.196 35.2143V39.2062H132.969V35.2143H152.196ZM161.645 35.2143L170.487 49.3121L179.33 35.2143H185.015L173.393 53.4303L185.293 72H179.558L170.487 57.6243L161.417 72H155.682L167.582 53.4303L155.96 35.2143H161.645ZM196.157 35.2143V72H191.281V35.2143H196.157Z" fill="white"/>
</svg>
