<svg width="132" height="51" viewBox="0 0 132 51" fill="none" xmlns="http://www.w3.org/2000/svg">
<path d="M21.2082 0L2 7.20325L21.2082 16.8073L30.3568 12.233L21.7743 9.60902C21.5976 9.69377 21.4042 9.73798 21.2082 9.73841C20.8591 9.73841 20.5244 9.59975 20.2775 9.35293C20.0307 9.10611 19.8921 8.77135 19.8921 8.4223C19.8921 8.07324 20.0307 7.73849 20.2775 7.49167C20.5244 7.24485 20.8591 7.10619 21.2082 7.10619L20.9905 7.81376L22.5153 8.28287L22.516 8.28748L24.766 8.97556L37.5773 12.9172V13.9163C37.4001 14.0369 37.2551 14.1989 37.1547 14.3882C37.0544 14.5776 37.0018 14.7886 37.0015 15.0029C37.0018 15.2222 37.0568 15.4379 37.1615 15.6304C37.2663 15.823 37.4175 15.9864 37.6014 16.1057C37.0023 18.3698 37.0015 23.5068 37.0015 25.5318C38.3176 26.3868 38.3176 26.4181 39.6337 25.5318C39.6337 23.5071 39.6331 18.371 39.0341 16.1064C39.2181 15.987 39.3693 15.8235 39.4741 15.6308C39.5788 15.4381 39.6337 15.2222 39.6337 15.0029C39.6337 14.7883 39.5812 14.577 39.4809 14.3874C39.3805 14.1978 39.2353 14.0355 39.0579 13.9149V11.8239L34.1781 10.3224L40.4163 7.20325L21.2082 0ZM9.9902 13.111L8.91074 19.5879C11.0638 19.8694 13.6394 21.1209 16.0071 22.6007C17.3536 23.4424 18.6149 24.3662 19.6392 25.2625C20.2653 25.8104 20.7889 26.336 21.2082 26.8531C21.6274 26.3359 22.151 25.8104 22.7771 25.2625C23.8015 24.3662 25.0627 23.4424 26.4093 22.6007C28.777 21.1209 31.3525 19.8694 33.5056 19.5879L32.426 13.111H31.9119L21.2082 18.4628L10.5043 13.111H9.9902Z" fill="#1A74E8"/>
<g filter="url(#filter0_d_2_2)">
<path d="M19.6512 39.4669V42H7.21145V39.4669H19.6512ZM7.84069 18.5082V42H4.72673V18.5082H7.84069ZM18.0054 28.6084V31.1415H7.21145V28.6084H18.0054ZM19.4898 18.5082V21.0574H7.21145V18.5082H19.4898ZM29.8643 42H24.9594L24.9917 39.4669H29.8643C31.5423 39.4669 32.9406 39.1173 34.0593 38.4181C35.1779 37.7082 36.0169 36.7186 36.5763 35.4494C37.1463 34.1694 37.4314 32.6743 37.4314 30.964V29.528C37.4314 28.1835 37.27 26.9895 36.9473 25.9462C36.6247 24.892 36.1514 24.0046 35.5275 23.284C34.9036 22.5525 34.1399 21.9986 33.2364 21.6221C32.3436 21.2456 31.3164 21.0574 30.1547 21.0574H24.8626V18.5082H30.1547C31.6929 18.5082 33.0966 18.7663 34.3658 19.2826C35.6351 19.7882 36.7268 20.525 37.6411 21.493C38.5662 22.4504 39.2761 23.612 39.7709 24.9781C40.2657 26.3334 40.5131 27.8608 40.5131 29.5603V30.964C40.5131 32.6635 40.2657 34.1963 39.7709 35.5623C39.2761 36.9176 38.5608 38.0739 37.625 39.0313C36.7 39.9886 35.5813 40.7254 34.269 41.2417C32.9675 41.7472 31.4993 42 29.8643 42ZM26.6213 18.5082V42H23.5073V18.5082H26.6213ZM58.6321 18.5082H61.73V34.4006C61.73 36.1647 61.3373 37.6329 60.5521 38.8054C59.7669 39.9778 58.7236 40.8598 57.422 41.4514C56.1313 42.0323 54.7276 42.3227 53.2109 42.3227C51.619 42.3227 50.1776 42.0323 48.8869 41.4514C47.6069 40.8598 46.5904 39.9778 45.8375 38.8054C45.0953 37.6329 44.7242 36.1647 44.7242 34.4006V18.5082H47.8059V34.4006C47.8059 35.6269 48.0318 36.638 48.4835 37.4339C48.9353 38.2299 49.5645 38.8215 50.3713 39.2087C51.1887 39.596 52.1353 39.7896 53.2109 39.7896C54.2973 39.7896 55.2439 39.596 56.0506 39.2087C56.8681 38.8215 57.5027 38.2299 57.9545 37.4339C58.4062 36.638 58.6321 35.6269 58.6321 34.4006V18.5082ZM80.8655 39.4669V42H69.1196V39.4669H80.8655ZM69.7327 18.5082V42H66.6187V18.5082H69.7327ZM99.3556 39.4669V42H86.9159V39.4669H99.3556ZM87.5452 18.5082V42H84.4312V18.5082H87.5452ZM97.7099 28.6084V31.1415H86.9159V28.6084H97.7099ZM99.1943 18.5082V21.0574H86.9159V18.5082H99.1943ZM105.229 18.5082L110.876 27.5112L116.523 18.5082H120.153L112.731 30.1411L120.33 42H116.668L110.876 32.8195L105.083 42H101.421L109.02 30.1411L101.598 18.5082H105.229ZM127.268 18.5082V42H124.154V18.5082H127.268Z" fill="black"/>
</g>
<defs>
<filter id="filter0_d_2_2" x="0.726807" y="18.5081" width="130.542" height="31.8145" filterUnits="userSpaceOnUse" color-interpolation-filters="sRGB">
<feFlood flood-opacity="0" result="BackgroundImageFix"/>
<feColorMatrix in="SourceAlpha" type="matrix" values="0 0 0 0 0 0 0 0 0 0 0 0 0 0 0 0 0 0 127 0" result="hardAlpha"/>
<feOffset dy="4"/>
<feGaussianBlur stdDeviation="2"/>
<feComposite in2="hardAlpha" operator="out"/>
<feColorMatrix type="matrix" values="0 0 0 0 0 0 0 0 0 0 0 0 0 0 0 0 0 0 0.25 0"/>
<feBlend mode="normal" in2="BackgroundImageFix" result="effect1_dropShadow_2_2"/>
<feBlend mode="normal" in="SourceGraphic" in2="effect1_dropShadow_2_2" result="shape"/>
</filter>
</defs>
</svg>
