<svg width="40" height="40" viewBox="0 0 40 40" fill="none" xmlns="http://www.w3.org/2000/svg">
<g clip-path="url(#clip0_19_3260)">
<path d="M8.6724 0H30.9276C35.7173 0 39.6 3.88266 39.6 8.6724V30.9276C39.6 35.7173 35.7173 39.6 30.9276 39.6H8.6724C3.88266 39.6 0 35.7173 0 30.9276V8.6724C0 3.88266 3.88266 0 8.6724 0Z" fill="url(#paint0_linear_19_3260)"/>
<path d="M12.6908 28.7427L12.6945 28.7439L11.3405 31.089C10.8463 31.945 9.75173 32.2383 8.89569 31.7441C8.03965 31.2499 7.74636 30.1553 8.24058 29.2993L9.23801 27.5717L9.33376 27.4059C9.50469 27.1602 9.92652 26.7361 10.7703 26.8159C10.7703 26.8159 12.7561 27.0314 12.8998 28.0635C12.8998 28.0635 12.9193 28.403 12.6908 28.7427ZM31.8942 22.7532H27.6721C27.3846 22.7339 27.2591 22.6311 27.2096 22.5714L27.2065 22.566L22.687 14.7379L22.6811 14.7418L22.4101 14.3532C21.9658 13.6738 21.2605 15.4113 21.2605 15.4113C20.4182 17.3473 21.38 19.5484 21.7153 20.2137L27.9928 31.0867C28.4869 31.9426 29.5814 32.236 30.4376 31.7416C31.2935 31.2474 31.587 30.1528 31.0926 29.2968L29.523 26.578C29.4925 26.5121 29.4396 26.3333 29.7615 26.3325H31.8942C32.8826 26.3325 33.6839 25.5312 33.6839 24.5428C33.6839 23.5543 32.8826 22.7532 31.8942 22.7532ZM23.6936 25.186C23.6936 25.186 23.9189 26.3324 23.047 26.3324H7.43915C6.4507 26.3324 5.64941 25.5311 5.64941 24.5426C5.64941 23.5542 6.4507 22.7529 7.43915 22.7529H11.4517C12.0996 22.7154 12.253 22.3414 12.253 22.3414L12.2567 22.3433L17.4945 13.2712L17.4929 13.2708C17.5883 13.0956 17.5088 12.9299 17.4951 12.9038L15.7652 9.90763C15.271 9.05175 15.5643 7.95702 16.4203 7.46295C17.2763 6.96888 18.3709 7.26186 18.8651 8.1179L19.6673 9.50746L20.4682 8.12037C20.9624 7.26449 22.057 6.97105 22.913 7.46543C23.769 7.95981 24.0623 9.05407 23.5681 9.91011L16.2795 22.5342C16.2477 22.611 16.2379 22.7317 16.4751 22.7529H20.8317L20.8326 22.7954C20.8326 22.7954 23.3506 22.8346 23.6936 25.186Z" fill="white"/>
</g>
<defs>
<linearGradient id="paint0_linear_19_3260" x1="1980" y1="0" x2="1980" y2="3960" gradientUnits="userSpaceOnUse">
<stop stop-color="#17C9FB"/>
<stop offset="1" stop-color="#1A74E8"/>
</linearGradient>
<clipPath id="clip0_19_3260">
<rect width="39.6" height="39.6" fill="white"/>
</clipPath>
</defs>
</svg>
