<svg width="6" height="6" viewBox="0 0 6 6" fill="none" xmlns="http://www.w3.org/2000/svg">
<path d="M3 0C2.40666 0 1.82664 0.175947 1.33329 0.505592C0.839943 0.835236 0.455426 1.30377 0.228363 1.85195C0.00129986 2.40013 -0.0581102 3.00333 0.0576455 3.58527C0.173401 4.16722 0.459124 4.70177 0.878681 5.12132C1.29824 5.54088 1.83279 5.8266 2.41473 5.94236C2.99667 6.05811 3.59987 5.9987 4.14805 5.77164C4.69623 5.54458 5.16477 5.16006 5.49441 4.66671C5.82406 4.17337 6 3.59335 6 3C6 2.20435 5.68393 1.44129 5.12132 0.87868C4.55871 0.316071 3.79565 0 3 0ZM3 3.75C2.85167 3.75 2.70666 3.70601 2.58332 3.6236C2.45999 3.54119 2.36386 3.42406 2.30709 3.28701C2.25033 3.14997 2.23547 2.99917 2.26441 2.85368C2.29335 2.7082 2.36478 2.57456 2.46967 2.46967C2.57456 2.36478 2.7082 2.29335 2.85368 2.26441C2.99917 2.23547 3.14997 2.25033 3.28701 2.30709C3.42406 2.36386 3.54119 2.45999 3.6236 2.58332C3.70602 2.70666 3.75 2.85167 3.75 3C3.75 3.19891 3.67098 3.38968 3.53033 3.53033C3.38968 3.67098 3.19891 3.75 3 3.75Z" fill="#26355D"/>
</svg>
