<svg width="24" height="25" viewBox="0 0 24 25" fill="none" xmlns="http://www.w3.org/2000/svg">
<path d="M19.2 19.2888C19.8365 19.2888 20.447 19.5419 20.8971 19.9924C21.3471 20.4429 21.6 21.0539 21.6 21.691C21.6 22.3281 21.3471 22.9391 20.8971 23.3896C20.447 23.8401 19.8365 24.0932 19.2 24.0932C18.5635 24.0932 17.953 23.8401 17.5029 23.3896C17.0529 22.9391 16.8 22.3281 16.8 21.691C16.8 20.3578 17.868 19.2888 19.2 19.2888ZM0 0.0708618H3.924L5.052 2.4731H22.8C23.1183 2.4731 23.4235 2.59965 23.6485 2.8249C23.8736 3.05015 24 3.35566 24 3.67422C24 3.87841 23.94 4.0826 23.856 4.27478L19.56 12.046C19.152 12.7787 18.36 13.2832 17.46 13.2832H8.52L7.44 15.241L7.404 15.3851C7.404 15.4648 7.43561 15.5411 7.49187 15.5975C7.54813 15.6538 7.62444 15.6854 7.704 15.6854H21.6V18.0876H7.2C6.56348 18.0876 5.95303 17.8346 5.50294 17.384C5.05286 16.9335 4.8 16.3225 4.8 15.6854C4.8 15.265 4.908 14.8686 5.088 14.5323L6.72 11.5896L2.4 2.4731H0V0.0708618ZM7.2 19.2888C7.83652 19.2888 8.44697 19.5419 8.89706 19.9924C9.34714 20.4429 9.6 21.0539 9.6 21.691C9.6 22.3281 9.34714 22.9391 8.89706 23.3896C8.44697 23.8401 7.83652 24.0932 7.2 24.0932C6.56348 24.0932 5.95303 23.8401 5.50294 23.3896C5.05286 22.9391 4.8 22.3281 4.8 21.691C4.8 20.3578 5.868 19.2888 7.2 19.2888ZM18 10.8809L21.336 4.87534H6.168L9 10.8809H18Z" fill="#fff"/>
</svg>
