<svg width="40" height="44" viewBox="0 0 40 44" fill="none" xmlns="http://www.w3.org/2000/svg">
<g clip-path="url(#clip0_19_3255)">
<path d="M18.4185 20.7856L0.163086 39.9119C0.368093 40.6384 0.736497 41.3084 1.24014 41.8707C1.74378 42.433 2.36932 42.8728 3.06894 43.1563C3.76856 43.4398 4.52375 43.5596 5.27676 43.5065C6.02978 43.4534 6.76069 43.2289 7.41363 42.85L27.9545 31.1514L18.4185 20.7856Z" fill="#EA4335"/>
<path d="M36.878 17.5348L27.9955 12.447L17.9971 21.2209L28.0362 31.1242L36.8511 26.0909C37.632 25.682 38.286 25.0672 38.7424 24.313C39.1988 23.5589 39.4401 22.6943 39.4401 21.8128C39.4401 20.9313 39.1988 20.0666 38.7424 19.3125C38.286 18.5584 37.632 17.9436 36.8511 17.5347L36.878 17.5348Z" fill="#FBBC04"/>
<path d="M0.163355 3.61865C0.0530753 4.0266 -0.00185256 4.44752 4.76618e-05 4.87011V38.6604C0.0011366 39.0829 0.0560137 39.5035 0.163355 39.912L19.0446 21.2756L0.163355 3.61865Z" fill="#4285F4"/>
<path d="M18.5546 21.7652L27.9953 12.447L7.48172 0.693758C6.70991 0.241767 5.83209 0.00239194 4.93767 9.44877e-06C2.71808 -0.00430433 0.766707 1.46885 0.163086 3.60494L18.5546 21.7652Z" fill="#34A853"/>
</g>
<defs>
<clipPath id="clip0_19_3255">
<rect width="39.4403" height="43.6" fill="white"/>
</clipPath>
</defs>
</svg>
