<svg width="30" height="27" viewBox="0 0 30 27" fill="none" xmlns="http://www.w3.org/2000/svg">
<path d="M14.8698 22.8801L14.7227 23.0272L14.5608 22.8801C7.57173 16.5384 2.95157 12.345 2.95157 8.09264C2.95157 5.14986 5.15865 2.94278 8.10143 2.94278C10.3674 2.94278 12.5745 4.41417 13.3543 6.41526H16.0911C16.8709 4.41417 19.078 2.94278 21.3439 2.94278C24.2867 2.94278 26.4938 5.14986 26.4938 8.09264C26.4938 12.345 21.8736 16.5384 14.8698 22.8801ZM21.3439 0C18.7837 0 16.3265 1.19183 14.7227 3.06049C13.1189 1.19183 10.6616 0 8.10143 0C3.56955 0 0.00878906 3.54605 0.00878906 8.09264C0.00878906 13.6398 5.01151 18.1864 12.5892 25.0578L14.7227 27L16.8562 25.0578C24.4339 18.1864 29.4366 13.6398 29.4366 8.09264C29.4366 3.54605 25.8758 0 21.3439 0Z" fill="#26355D"/>
</svg>
