<svg width="15" height="12" viewBox="0 0 15 12" fill="none" xmlns="http://www.w3.org/2000/svg">
<path d="M0 0.9375C0 0.68886 0.0987722 0.450403 0.274588 0.274588C0.450403 0.0987722 0.68886 0 0.9375 0H1.875C2.12364 0 2.3621 0.0987722 2.53791 0.274588C2.71373 0.450403 2.8125 0.68886 2.8125 0.9375C2.8125 1.18614 2.71373 1.4246 2.53791 1.60041C2.3621 1.77623 2.12364 1.875 1.875 1.875H0.9375C0.68886 1.875 0.450403 1.77623 0.274588 1.60041C0.0987722 1.4246 0 1.18614 0 0.9375ZM4.6875 0.9375C4.6875 0.68886 4.78627 0.450403 4.96209 0.274588C5.1379 0.0987722 5.37636 0 5.625 0H14.0625C14.3111 0 14.5496 0.0987722 14.7254 0.274588C14.9012 0.450403 15 0.68886 15 0.9375C15 1.18614 14.9012 1.4246 14.7254 1.60041C14.5496 1.77623 14.3111 1.875 14.0625 1.875H5.625C5.37636 1.875 5.1379 1.77623 4.96209 1.60041C4.78627 1.4246 4.6875 1.18614 4.6875 0.9375ZM0 5.625C0 5.37636 0.0987722 5.1379 0.274588 4.96209C0.450403 4.78627 0.68886 4.6875 0.9375 4.6875H1.875C2.12364 4.6875 2.3621 4.78627 2.53791 4.96209C2.71373 5.1379 2.8125 5.37636 2.8125 5.625C2.8125 5.87364 2.71373 6.1121 2.53791 6.28791C2.3621 6.46373 2.12364 6.5625 1.875 6.5625H0.9375C0.68886 6.5625 0.450403 6.46373 0.274588 6.28791C0.0987722 6.1121 0 5.87364 0 5.625ZM4.6875 5.625C4.6875 5.37636 4.78627 5.1379 4.96209 4.96209C5.1379 4.78627 5.37636 4.6875 5.625 4.6875H14.0625C14.3111 4.6875 14.5496 4.78627 14.7254 4.96209C14.9012 5.1379 15 5.37636 15 5.625C15 5.87364 14.9012 6.1121 14.7254 6.28791C14.5496 6.46373 14.3111 6.5625 14.0625 6.5625H5.625C5.37636 6.5625 5.1379 6.46373 4.96209 6.28791C4.78627 6.1121 4.6875 5.87364 4.6875 5.625ZM0 10.3125C0 10.0639 0.0987722 9.8254 0.274588 9.64959C0.450403 9.47377 0.68886 9.375 0.9375 9.375H1.875C2.12364 9.375 2.3621 9.47377 2.53791 9.64959C2.71373 9.8254 2.8125 10.0639 2.8125 10.3125C2.8125 10.5611 2.71373 10.7996 2.53791 10.9754C2.3621 11.1512 2.12364 11.25 1.875 11.25H0.9375C0.68886 11.25 0.450403 11.1512 0.274588 10.9754C0.0987722 10.7996 0 10.5611 0 10.3125ZM4.6875 10.3125C4.6875 10.0639 4.78627 9.8254 4.96209 9.64959C5.1379 9.47377 5.37636 9.375 5.625 9.375H14.0625C14.3111 9.375 14.5496 9.47377 14.7254 9.64959C14.9012 9.8254 15 10.0639 15 10.3125C15 10.5611 14.9012 10.7996 14.7254 10.9754C14.5496 11.1512 14.3111 11.25 14.0625 11.25H5.625C5.37636 11.25 5.1379 11.1512 4.96209 10.9754C4.78627 10.7996 4.6875 10.5611 4.6875 10.3125Z" fill="white"/>
</svg>
