<svg width="22" height="22" viewBox="0 0 22 22" fill="none" xmlns="http://www.w3.org/2000/svg">
<path fill-rule="evenodd" clip-rule="evenodd" d="M6.69251 0.0753433C7.81465 0.0236364 8.17244 0.012146 11.0309 0.012146C13.8893 0.012146 14.2471 0.0245939 15.3683 0.0753433C16.4895 0.126093 17.2548 0.305152 17.9245 0.564644C18.6257 0.829881 19.2618 1.24449 19.788 1.78071C20.3237 2.3064 20.737 2.9422 21.001 3.64504C21.2612 4.31531 21.4392 5.08134 21.4908 6.20165C21.5425 7.32676 21.554 7.68488 21.554 10.545C21.554 13.4061 21.5415 13.7643 21.4908 14.8875C21.4401 16.0078 21.2612 16.7738 21.001 17.4441C20.737 18.147 20.323 18.7839 19.788 19.3103C19.2618 19.8465 18.6257 20.2602 17.9245 20.5245C17.2548 20.7849 16.4895 20.963 15.3702 21.0147C14.2471 21.0664 13.8893 21.0779 11.0309 21.0779C8.17244 21.0779 7.81465 21.0655 6.69251 21.0147C5.57324 20.964 4.80792 20.7849 4.13827 20.5245C3.43602 20.2602 2.79976 19.8458 2.27378 19.3103C1.73842 18.7843 1.32413 18.1478 1.0598 17.445C0.800545 16.7748 0.62261 16.0087 0.570951 14.8884C0.519292 13.7633 0.507812 13.4052 0.507812 10.545C0.507812 7.68392 0.520249 7.3258 0.570951 6.20357C0.621653 5.08134 0.800545 4.31531 1.0598 3.64504C1.32452 2.94228 1.73913 2.30574 2.27473 1.77976C2.79997 1.24402 3.43559 0.829348 4.13732 0.564644C4.80697 0.305152 5.57324 0.12705 6.69251 0.0753433ZM15.2822 1.97126C14.1725 1.92051 13.8396 1.90998 11.0299 1.90998C8.22027 1.90998 7.88736 1.92051 6.77765 1.97126C5.75117 2.01818 5.19441 2.18958 4.82323 2.33417C4.33247 2.52568 3.98138 2.75261 3.61308 3.12126C3.26394 3.46124 2.99526 3.87511 2.82672 4.33255C2.68226 4.70407 2.51102 5.26135 2.46415 6.28879C2.41345 7.39953 2.40292 7.73275 2.40292 10.545C2.40292 13.3573 2.41345 13.6905 2.46415 14.8013C2.51102 15.8287 2.68226 16.386 2.82672 16.7575C2.99509 17.2143 3.2639 17.6289 3.61308 17.9688C3.95268 18.3183 4.36691 18.5874 4.82323 18.7559C5.19441 18.9005 5.75117 19.0719 6.77765 19.1188C7.88736 19.1696 8.21931 19.1801 11.0299 19.1801C13.8406 19.1801 14.1725 19.1696 15.2822 19.1188C16.3087 19.0719 16.8655 18.9005 17.2366 18.7559C17.7274 18.5644 18.0785 18.3375 18.4468 17.9688C18.796 17.6289 19.0648 17.2143 19.2331 16.7575C19.3776 16.386 19.5488 15.8287 19.5957 14.8013C19.6464 13.6905 19.6569 13.3573 19.6569 10.545C19.6569 7.73275 19.6464 7.39953 19.5957 6.28879C19.5488 5.26135 19.3776 4.70407 19.2331 4.33255C19.0418 3.84133 18.8151 3.48991 18.4468 3.12126C18.1071 2.77183 17.6936 2.5029 17.2366 2.33417C16.8655 2.18958 16.3087 2.01818 15.2822 1.97126ZM9.68585 13.792C10.4365 14.1048 11.2723 14.147 12.0506 13.9115C12.8289 13.6759 13.5013 13.1772 13.9531 12.5006C14.4048 11.8239 14.6078 11.0112 14.5275 10.2014C14.4471 9.39153 14.0883 8.63473 13.5124 8.06023C13.1453 7.69299 12.7014 7.4118 12.2127 7.23689C11.7239 7.06198 11.2025 6.99771 10.686 7.04871C10.1695 7.0997 9.67069 7.26469 9.22552 7.5318C8.78034 7.7989 8.39988 8.16148 8.1115 8.59344C7.82313 9.02539 7.63403 9.51596 7.55781 10.0298C7.48159 10.5437 7.52015 11.0681 7.67072 11.5653C7.82128 12.0625 8.0801 12.5201 8.42855 12.9051C8.777 13.2901 9.2064 13.593 9.68585 13.792ZM7.20623 6.71681C7.70849 6.21408 8.30476 5.81529 8.961 5.54322C9.61723 5.27114 10.3206 5.1311 11.0309 5.1311C11.7412 5.1311 12.4445 5.27114 13.1008 5.54322C13.757 5.81529 14.3533 6.21408 14.8555 6.71681C15.3578 7.21954 15.7562 7.81637 16.028 8.47321C16.2999 9.13006 16.4398 9.83407 16.4398 10.545C16.4398 11.256 16.2999 11.96 16.028 12.6169C15.7562 13.2737 15.3578 13.8705 14.8555 14.3733C13.8412 15.3886 12.4654 15.959 11.0309 15.959C9.59636 15.959 8.22059 15.3886 7.20623 14.3733C6.19187 13.358 5.622 11.9809 5.622 10.545C5.622 9.10917 6.19187 7.73212 7.20623 6.71681ZM17.6394 5.93737C17.7638 5.81986 17.8635 5.67853 17.9324 5.52178C18.0013 5.36502 18.0381 5.19602 18.0406 5.02478C18.0431 4.85353 18.0112 4.68353 17.9469 4.52483C17.8826 4.36613 17.7871 4.22196 17.6661 4.10086C17.5451 3.97976 17.4011 3.88419 17.2426 3.8198C17.084 3.75542 16.9142 3.72353 16.7431 3.72603C16.572 3.72852 16.4031 3.76535 16.2465 3.83434C16.0899 3.90332 15.9487 4.00305 15.8313 4.12763C15.603 4.36992 15.478 4.69174 15.4828 5.02478C15.4877 5.35782 15.622 5.67585 15.8573 5.91137C16.0926 6.14689 16.4103 6.28135 16.7431 6.2862C17.0758 6.29106 17.3973 6.16593 17.6394 5.93737Z" fill="white"/>
</svg>
