<svg width="21" height="22" viewBox="0 0 21 22" fill="none" xmlns="http://www.w3.org/2000/svg">
<path fill-rule="evenodd" clip-rule="evenodd" d="M8.32243 7.92441H12.0679V9.79181C12.6074 8.7178 13.991 7.75282 16.0694 7.75282C20.0539 7.75282 20.9998 9.89073 20.9998 13.8133V21.0779H16.966V14.7066C16.966 12.4728 16.4264 11.213 15.0529 11.213C13.1479 11.213 12.3563 12.5707 12.3563 14.7056V21.0779H8.32243V7.92441ZM1.40539 20.9063H5.43924V7.75282H1.40539V20.9063ZM6.01708 3.46387C6.01723 3.80229 5.95018 4.13738 5.81982 4.44964C5.68945 4.7619 5.49838 5.04511 5.25771 5.28281C4.77002 5.76795 4.10989 6.03951 3.42231 6.03784C2.73594 6.03738 2.07734 5.76651 1.58893 5.28382C1.34913 5.04531 1.15871 4.76178 1.02857 4.44948C0.898437 4.13718 0.83115 3.80224 0.830566 3.46387C0.830566 2.7805 1.10285 2.12641 1.58994 1.64392C2.07792 1.16057 2.7368 0.889591 3.42332 0.889893C4.11109 0.889893 4.77063 1.16142 5.25771 1.64392C5.74379 2.12641 6.01708 2.7805 6.01708 3.46387Z" fill="white"/>
</svg>
