<svg width="42" height="46" viewBox="0 0 42 46" fill="none" xmlns="http://www.w3.org/2000/svg">
<path d="M10.0177 44.0007V38.0011C9.39187 31.7495 2 28.4021 2 18.8011C2 9.20427 7.7266 1.8838 19.1819 2.0014C27.4285 2.0896 35.2172 6.80191 35.2172 16.4029L39.7993 23.6016C39.7993 28.4021 35.2172 28.4021 35.2172 28.4021C35.2172 28.4021 36.3638 40.4013 26.053 40.4013V44.0007" stroke="white" stroke-width="3.14995" stroke-linecap="round" stroke-linejoin="round"/>
<path d="M18.7995 23.001C19.9134 23.001 20.9817 22.5586 21.7693 21.7709C22.557 20.9833 22.9995 19.915 22.9995 18.8011C22.9995 17.6872 22.557 16.619 21.7693 15.8313C20.9817 15.0437 19.9134 14.6012 18.7995 14.6012C17.6856 14.6012 16.6174 15.0437 15.8297 15.8313C15.0421 16.619 14.5996 17.6872 14.5996 18.8011C14.5996 19.915 15.0421 20.9833 15.8297 21.7709C16.6174 22.5586 17.6856 23.001 18.7995 23.001Z" stroke="white" stroke-width="3.14995" stroke-linecap="round" stroke-linejoin="round"/>
<path d="M18.7999 25.101C20.4707 25.101 22.0731 24.4373 23.2546 23.2558C24.436 22.0743 25.0998 20.4719 25.0998 18.8011C25.0998 17.1303 24.436 15.5279 23.2546 14.3464C22.0731 13.165 20.4707 12.5012 18.7999 12.5012C17.1291 12.5012 15.5267 13.165 14.3452 14.3464C13.1637 15.5279 12.5 17.1303 12.5 18.8011C12.5 20.4719 13.1637 22.0743 14.3452 23.2558C15.5267 24.4373 17.1291 25.101 18.7999 25.101Z" stroke="white" stroke-width="3.14995" stroke-linecap="round" stroke-linejoin="round"/>
</svg>
