<svg width="15" height="14" viewBox="0 0 15 14" fill="none" xmlns="http://www.w3.org/2000/svg">
<path d="M7.49421 0.359375C6.17975 0.359375 4.8948 0.74916 3.80186 1.47944C2.70892 2.20972 1.85707 3.24769 1.35405 4.4621C0.851024 5.67651 0.71941 7.01281 0.97585 8.30202C1.23229 9.59124 1.86527 10.7755 2.79474 11.7049C3.7242 12.6344 4.90842 13.2674 6.19763 13.5238C7.48684 13.7802 8.82314 13.6486 10.0376 13.1456C11.252 12.6426 12.2899 11.7907 13.0202 10.6978C13.7505 9.60486 14.1403 8.31991 14.1403 7.00544C14.1403 5.24279 13.4401 3.55234 12.1937 2.30596C10.9473 1.05958 9.25686 0.359375 7.49421 0.359375ZM11.0294 7.43032L5.33282 10.2786C5.26043 10.3148 5.17999 10.3319 5.09914 10.3282C5.0183 10.3245 4.93973 10.3003 4.8709 10.2577C4.80208 10.2151 4.74527 10.1557 4.70589 10.085C4.66651 10.0143 4.64586 9.93468 4.6459 9.85375V4.15713C4.64594 4.07624 4.66665 3.9967 4.70607 3.92607C4.74548 3.85543 4.80229 3.79604 4.8711 3.75352C4.93992 3.71101 5.01845 3.68678 5.09926 3.68314C5.18007 3.6795 5.26046 3.69657 5.33282 3.73273L11.0294 6.58104C11.1082 6.62051 11.1744 6.68111 11.2207 6.75606C11.267 6.83101 11.2915 6.91736 11.2915 7.00544C11.2915 7.09353 11.267 7.17987 11.2207 7.25482C11.1744 7.32977 11.1082 7.39037 11.0294 7.42984" fill="#03001C"/>
</svg>
