<svg width="26" height="22" viewBox="0 0 26 22" fill="none" xmlns="http://www.w3.org/2000/svg">
<path fill-rule="evenodd" clip-rule="evenodd" d="M16.4057 0.98165C16.9858 0.882802 17.6356 0.849853 18.2477 0.953246C19.338 1.13648 20.3482 1.64021 21.1483 2.3996C21.669 2.41096 22.1817 2.30871 22.6351 2.16327C23.0733 2.0211 23.4939 1.83015 23.889 1.59405L23.8992 1.58723C24.0637 1.47822 24.261 1.42914 24.4576 1.4483C24.6543 1.46747 24.8382 1.5537 24.9783 1.69238C25.1184 1.83106 25.2059 2.01367 25.2261 2.20924C25.2463 2.40481 25.1979 2.60132 25.0892 2.76545C24.8528 3.12335 24.5228 3.76188 24.1539 4.47767L23.9769 4.81966C23.7656 5.22868 23.5487 5.64225 23.3465 5.99674C23.2198 6.21943 23.0839 6.44553 22.9468 6.64095V6.95226C22.9609 8.81405 22.6021 10.66 21.8914 12.3823C21.1807 14.1046 20.1323 15.6689 18.8074 16.9838C17.4826 18.2987 15.9077 19.3378 14.1749 20.0406C12.442 20.7435 10.5858 21.0958 8.71457 21.0772C6.00292 21.0797 3.34833 20.3024 1.07027 18.839C0.906776 18.7344 0.783863 18.5777 0.721723 18.3945C0.659583 18.2113 0.661911 18.0125 0.728323 17.8308C0.794736 17.6491 0.921285 17.4953 1.08718 17.3946C1.25308 17.2939 1.44847 17.2523 1.64125 17.2767C3.21473 17.4638 4.80949 17.2113 6.24679 16.5473C5.54555 16.2301 4.91838 15.7711 4.40522 15.1995C3.89207 14.6279 3.50419 13.9563 3.26627 13.2274C3.22093 13.0878 3.21256 12.939 3.24197 12.7953C3.27138 12.6516 3.33757 12.5179 3.43414 12.4071L3.44555 12.3957C2.86602 11.882 2.40153 11.2528 2.08223 10.5489C1.76293 9.84504 1.59596 9.08223 1.59215 8.31V8.25092C1.59207 8.06385 1.65386 7.88195 1.76798 7.73329C1.88211 7.58463 2.04224 7.47746 2.22366 7.42832C1.83696 6.66065 1.63633 5.81355 1.63783 4.95486C1.63718 3.98135 1.89312 3.02469 2.3801 2.18032C2.44929 2.06045 2.54675 1.95914 2.66407 1.8851C2.78139 1.81107 2.91505 1.76654 3.05352 1.75535C3.19199 1.74417 3.33112 1.76667 3.4589 1.82091C3.58669 1.87515 3.69929 1.95951 3.787 2.0667C5.78451 4.51509 8.64626 6.11225 11.7876 6.53188C11.7603 5.50953 12.0195 4.4998 12.5362 3.61569C13.053 2.73158 13.8068 2.00799 14.7133 1.52588C15.1724 1.28274 15.7799 1.08845 16.4057 0.98165ZM3.52435 9.55752C3.7461 10.1785 4.12609 10.7315 4.62713 11.1625C5.12817 11.5935 5.73308 11.8876 6.38268 12.0162C6.56984 12.0533 6.73918 12.1515 6.86383 12.2953C6.98849 12.439 7.06132 12.6201 7.07076 12.8097C7.08021 12.9994 7.02573 13.1867 6.91597 13.342C6.80621 13.4974 6.64745 13.6118 6.4649 13.6671C6.15429 13.7614 5.83568 13.8261 5.51251 13.8636C5.86337 14.3139 6.31115 14.6803 6.82296 14.9359C7.33477 15.1915 7.89763 15.3298 8.47019 15.3407C8.6468 15.344 8.81806 15.4015 8.96051 15.5055C9.10296 15.6094 9.20963 15.7546 9.2659 15.9212C9.32217 16.0878 9.32529 16.2676 9.27484 16.436C9.22439 16.6045 9.12283 16.7532 8.98407 16.862C7.79329 17.7942 6.40949 18.4519 4.93239 18.7878C6.15528 19.1773 7.43171 19.3747 8.71571 19.373H8.72599C10.3705 19.3904 12.0021 19.0815 13.5252 18.4644C15.0484 17.8473 16.4327 16.9344 17.5973 15.7789C18.7618 14.6235 19.6832 13.2487 20.3076 11.7349C20.932 10.2211 21.2469 8.59874 21.2339 6.96249V6.35463C21.2337 6.14773 21.3092 5.94782 21.4463 5.79223C21.5262 5.70247 21.6633 5.49568 21.8574 5.15597C22.0401 4.83557 22.2434 4.44926 22.4547 4.04138L22.4923 3.96639C21.8958 4.09995 21.2816 4.13716 20.6732 4.0766C20.4675 4.0543 20.2768 3.95865 20.1365 3.80732C19.5622 3.18775 18.7974 2.77534 17.9622 2.63479C17.5409 2.5755 17.1128 2.58509 16.6946 2.66319C16.287 2.72632 15.8913 2.85003 15.5207 3.03018C14.7734 3.42739 14.1799 4.06015 13.8331 4.82919C13.4863 5.59824 13.4059 6.46007 13.6045 7.27948C13.6357 7.40833 13.6363 7.54266 13.6062 7.67179C13.5762 7.80092 13.5162 7.92129 13.4312 8.02332C13.3461 8.12536 13.2384 8.20625 13.1164 8.25956C12.9944 8.31288 12.8616 8.33715 12.7286 8.33045C9.21998 8.15388 5.9029 6.68497 3.42272 4.20953C3.37453 4.45545 3.35044 4.70545 3.35077 4.956V4.95827C3.34949 5.58402 3.50375 6.20037 3.79982 6.75244C4.09589 7.30452 4.52459 7.77518 5.04773 8.12253C5.20135 8.2254 5.31733 8.37504 5.37827 8.54902C5.43921 8.723 5.44184 8.91194 5.38575 9.08753C5.32967 9.26312 5.2179 9.41589 5.06719 9.52296C4.91649 9.63002 4.73496 9.6856 4.54983 9.68136C4.20519 9.67186 3.86223 9.63002 3.52549 9.55638" fill="white"/>
</svg>
