<svg width="19" height="14" viewBox="0 0 19 14" fill="none" xmlns="http://www.w3.org/2000/svg">
<path d="M6.64607 8.98141C4.42438 8.98141 0 10.0923 0 12.3044V13.966H13.2921V12.3044C13.2921 10.0923 8.86775 8.98141 6.64607 8.98141ZM2.22169 12.0671C3.01921 11.5164 4.94657 10.8803 6.64607 10.8803C8.34556 10.8803 10.2729 11.5164 11.0704 12.0671H2.22169ZM6.64607 7.3199C8.47848 7.3199 9.9691 5.82928 9.9691 3.99686C9.9691 2.16445 8.47848 0.673828 6.64607 0.673828C4.81365 0.673828 3.32303 2.16445 3.32303 3.99686C3.32303 5.82928 4.81365 7.3199 6.64607 7.3199ZM6.64607 2.5727C7.4341 2.5727 8.07022 3.20883 8.07022 3.99686C8.07022 4.7849 7.4341 5.42102 6.64607 5.42102C5.85803 5.42102 5.22191 4.7849 5.22191 3.99686C5.22191 3.20883 5.85803 2.5727 6.64607 2.5727ZM13.3301 9.03838C14.4315 9.83591 15.191 10.8993 15.191 12.3044V13.966H18.9888V12.3044C18.9888 10.3866 15.6657 9.29473 13.3301 9.03838ZM12.3427 7.3199C14.1751 7.3199 15.6657 5.82928 15.6657 3.99686C15.6657 2.16445 14.1751 0.673828 12.3427 0.673828C11.83 0.673828 11.3553 0.797255 10.9185 1.00613C11.5167 1.85113 11.868 2.88602 11.868 3.99686C11.868 5.1077 11.5167 6.14259 10.9185 6.98759C11.3553 7.19647 11.83 7.3199 12.3427 7.3199Z" fill="#03001C"/>
</svg>
